<svg xmlns:dc="http://purl.org/dc/elements/1.1/" xmlns:cc="http://creativecommons.org/ns#" xmlns:rdf="http://www.w3.org/1999/02/22-rdf-syntax-ns#" xmlns:svg="http://www.w3.org/2000/svg" xmlns="http://www.w3.org/2000/svg" xmlns:sodipodi="http://sodipodi.sourceforge.net/DTD/sodipodi-0.dtd" xmlns:inkscape="http://www.inkscape.org/namespaces/inkscape" width="67.46875mm" height="57.414585mm" viewBox="0 0 67.46875 57.414585" version="1.1" id="svg1484" inkscape:version="0.92.3 (2405546, 2018-03-11)" sodipodi:docname="baronfilou-head.svg">
    <defs id="defs1478"/>
    <sodipodi:namedview id="base" pagecolor="#ffffff" bordercolor="#666666" borderopacity="1.0" inkscape:pageopacity="0.0" inkscape:pageshadow="2" inkscape:zoom="1.979899" inkscape:cx="86.264938" inkscape:cy="79.930849" inkscape:document-units="mm" inkscape:current-layer="layer1" showgrid="false" fit-margin-top="0" fit-margin-left="0" fit-margin-right="0" fit-margin-bottom="0" inkscape:window-width="1813" inkscape:window-height="1057" inkscape:window-x="1912" inkscape:window-y="-8" inkscape:window-maximized="1"/>
    <metadata id="metadata1481">
      <rdf:RDF>
        <cc:Work rdf:about="">
          <dc:format>image/svg+xml</dc:format>
          <dc:type rdf:resource="http://purl.org/dc/dcmitype/StillImage"/>
          <dc:title/>
        </cc:Work>
      </rdf:RDF>
    </metadata>
    <g inkscape:label="Layer 1" inkscape:groupmode="layer" id="layer1" transform="translate(56.790924,-120.12604)">
      <path style="fill:#000000;stroke-width:0.26458335" d="m -26.218119,173.55567 c -3.934886,-0.5492 -5.082892,-0.75902 -7.260756,-1.32706 -2.820997,-0.73578 -6.591412,-2.43347 -8.926986,-4.01953 -2.624399,-1.78219 -5.459829,-5.02754 -6.829422,-7.81676 -1.524107,-3.10389 -1.991941,-5.02203 -2.089593,-8.56745 -0.05082,-1.84506 -0.229505,-3.22964 -0.505058,-3.91354 -0.552796,-1.372 -0.562935,-3.95407 -0.0221,-5.62866 0.235147,-0.72809 0.880331,-1.92204 1.433742,-2.65322 l 1.006201,-1.32942 -0.647679,-1.6035 c -2.780286,-6.88329 0.129622,-13.37603 5.98228,-13.34798 2.088477,0.01 3.83166,0.646 6.065553,2.21299 l 1.620644,1.13681 2.969921,-0.57231 c 4.838778,-0.93246 6.443037,-1.09042 11.130446,-1.09593 4.870386,-0.006 8.046487,0.46843 11.512481,1.71868 2.2580573,0.81453 2.5128993,0.81498 3.5730003,0.006 0.469373,-0.35801 1.562758,-0.98121 2.429742,-1.3849 1.357398,-0.63203 1.907075,-0.73365 3.95758804,-0.7316 3.06499396,0.003 5.02162696,0.82051 7.01893796,2.93237 1.755283,1.85595 2.432629,3.41475 2.582402,5.94296 0.188127,3.17565 -0.702704,5.70031 -3.15387,8.93823 -0.708451,0.93584 -1.288095,1.93183 -1.288095,2.2133 0,0.28148 0.261445,1.48411 0.580988,2.67253 0.845116,3.14306 0.856398,8.79028 0.02281,11.42116 -2.307172,7.28171 -9.469038,12.36986 -20.1137103,14.2898 -2.239005,0.40384 -9.425186,0.73333 -11.049466,0.50663 z m 9.921875,-1.81982 c 7.2508303,-1.1012 14.1026233,-4.46498 17.15258434,-8.4208 1.33748396,-1.73473 2.58311596,-4.34834 2.97727096,-6.24698 0.451268,-2.17374 0.179861,-7.37225 -0.524645,-10.04904 -0.336081,-1.27696 -0.514683,-2.52636 -0.421674,-2.94983 0.08874,-0.40403 0.703043,-1.43125 1.365115,-2.2827 4.054353,-5.21406 4.188182,-10.22091 0.365072,-13.65821 -1.60034,-1.43885 -3.224792,-2.04509 -5.47989096,-2.04509 -1.97215904,0 -3.62613904,0.57045 -5.60779104,1.93411 -0.780315,0.53697 -1.68026,0.97631 -1.99988,0.97631 -0.319619,0 -1.5339013,-0.34772 -2.6984063,-0.77271 -6.002242,-2.19055 -12.993127,-2.40742 -21.689482,-0.67286 -3.556594,0.7094 -4.31272,0.63821 -5.710095,-0.53761 -1.731799,-1.45721 -3.3847,-2.10046 -5.420489,-2.10948 -1.687113,-0.007 -2.019944,0.0791 -3.028251,0.78779 -0.686031,0.48216 -1.399395,1.31419 -1.808729,2.1096 -0.588252,1.14309 -0.674819,1.64035 -0.66746,3.83404 0.0065,1.92814 0.144754,2.88692 0.588333,4.07907 0.318932,0.85716 0.628152,1.60675 0.687155,1.66575 0.059,0.059 0.665673,-0.16401 1.348156,-0.49558 0.942297,-0.45781 1.458462,-0.96105 2.145148,-2.09146 0.497349,-0.81872 1.566826,-2.23113 2.376615,-3.13867 0.80979,-0.90755 1.431103,-1.78755 1.380695,-1.95555 -0.05041,-0.168 -0.651852,-0.58598 -1.336542,-0.92884 -1.241398,-0.62164 -1.649827,-1.41357 -0.88115,-1.70854 0.527818,-0.20254 2.983964,1.00441 3.319385,1.63115 0.616673,1.15226 0.345635,2.12325 -0.993965,3.56088 -0.703774,0.75527 -1.650914,1.92267 -2.104756,2.59421 l -0.825166,1.22098 1.444084,0.14905 c 4.058677,0.41889 7.493502,3.80196 7.973307,7.85316 0.130856,1.10487 0.239556,1.32575 0.585265,1.18925 1.211396,-0.4783 3.142359,-0.44008 4.331046,0.0857 l 1.21867,0.53908 0.280776,-1.30921 c 1.231577,-5.74265 7.593695,-9.05409 12.982612,-6.75737 3.666339,1.56256 6.1656573,5.79745 5.7099283,9.67499 -0.377193,3.20933 -2.7521513,6.47265 -5.6435813,7.7546 -1.699236,0.75337 -4.57686,0.92377 -6.442295,0.38147 -2.828769,-0.82234 -5.61146,-3.53545 -6.321332,-6.16326 -0.5691,-2.10671 -1.712069,-3.00716 -3.817063,-3.00716 -1.72534,0 -2.931907,0.65972 -3.403837,1.86114 l -0.39041,0.99389 0.825985,-0.23689 c 1.416373,-0.40621 3.263318,-0.29706 3.45568,0.20423 0.264551,0.68941 -0.239293,0.97234 -2.068718,1.16169 -5.431304,0.56216 -8.662618,5.58933 -6.928258,10.77876 0.314459,0.9409 0.948209,1.91967 1.928763,2.97878 1.215449,1.31283 1.405475,1.64362 1.13288,1.97208 -0.479712,0.57801 -0.681635,0.50719 -1.988462,-0.6974 -2.609147,-2.40502 -3.719574,-6.71738 -2.58835,-10.05189 l 0.504342,-1.48665 -1.619973,0.13004 c -2.066891,0.16591 -4.101635,-0.40982 -5.955595,-1.68512 l -1.396752,-0.96079 0.174135,1.87362 c 0.667831,7.1856 5.847754,13.49667 13.524122,16.47742 2.125407,0.8253 5.51457,1.69858 8.00987,2.06389 2.525818,0.36978 9.261498,0.31518 11.976004,-0.0971 z m -13.830628,-7.3994 c -0.694606,-0.18654 -1.711446,-0.6996 -2.259645,-1.14014 l -0.996724,-0.80099 -0.765115,0.65812 c -0.661856,0.56931 -0.957458,0.64218 -2.190314,0.53994 -1.150431,-0.0954 -1.58193,-0.27492 -2.238151,-0.93114 -1.282628,-1.28263 -0.358686,-2.37891 0.964567,-1.14449 0.884319,0.82496 1.791534,0.92234 2.608192,0.27995 0.961115,-0.75601 0.901773,-1.37886 -0.212331,-2.22863 -1.52504,-1.16321 -2.360048,-3.35307 -1.817579,-4.76672 0.649177,-1.69173 6.68972,-1.53496 7.908612,0.20526 1.084408,1.54821 -0.488909,4.55604 -2.669401,5.10331 -0.352586,0.0885 -0.641066,0.30009 -0.641066,0.47022 0,1.05732 2.234487,2.53211 3.836458,2.53211 0.436563,0 1.322089,-0.23969 1.967834,-0.53263 1.327187,-0.60209 1.868625,-0.51915 1.868625,0.28624 0,0.3975 -0.315228,0.68804 -1.124479,1.03637 -1.621984,0.69817 -2.803306,0.81889 -4.239483,0.43322 z m -4.507502,-8.52359 c 0.218876,-0.57038 -0.25115,-1.28695 -0.84416,-1.28695 -0.259322,0 -0.592716,0.19217 -0.740876,0.42706 -0.404211,0.6408 -0.03059,1.29273 0.740876,1.29273 0.383689,0 0.750174,-0.18791 0.84416,-0.43284 z m 34.27268334,-16.97138 c -0.47657,-0.83242 -1.69696104,-2.51253 -2.71197904,-3.73359 -1.72244,-2.07207 -1.84549,-2.3052 -1.84549,-3.49652 0,-1.03623 0.146913,-1.44375 0.780717,-2.16561 0.880565,-1.00291 2.685782,-1.92288 3.30609504,-1.68484 0.781291,0.29981 0.455182,1.11141 -0.64087904,1.59499 -1.143812,0.50465 -2.123016,1.55757 -2.123016,2.28284 0,0.25141 0.902306,1.5748 2.005123,2.94088 2.970247,3.67929 3.914183,5.80569 2.56724204,5.7832 -0.291994,-0.005 -0.801005,-0.58371 -1.337813,-1.52135 z M -15.364836,153.76991 c 1.723033,-0.80237 3.657605,-2.95076 4.242337,-4.71123 1.2418803,-3.73894 -0.519996,-7.92754 -4.067363,-9.66956 -1.244682,-0.61123 -1.844588,-0.73727 -3.487632,-0.73274 -3.376191,0.009 -5.913117,1.63519 -7.270313,4.65943 -0.645573,1.43853 -0.716775,1.86315 -0.610534,3.64114 0.191013,3.19673 1.722191,5.48782 4.546523,6.80292 1.885135,0.87778 4.774187,0.88214 6.646982,0.01 z m -6.142554,-2.80423 c -1.908654,-1.16378 -2.395545,-3.63807 -1.060365,-5.38858 2.136889,-2.80161 6.534872,-1.34835 6.583503,2.17543 0.03974,2.8794 -3.087119,4.69848 -5.523138,3.21315 z m 0.702691,-3.57082 c 0.177052,-0.21334 0.240189,-0.63199 0.141978,-0.94143 -0.258662,-0.81497 -1.553072,-0.63166 -1.675942,0.23735 -0.137644,0.97348 0.910942,1.45477 1.533964,0.70408 z m -19.616278,4.61635 c 1.282565,-0.58205 2.357515,-1.36668 2.865029,-2.09126 0.324464,-0.46324 0.291126,-0.46861 -0.728244,-0.11741 -4.040377,1.39202 -6.611125,-4.32189 -3.006948,-6.68344 1.46222,-0.95808 4.197064,-0.32514 5.001555,1.15753 l 0.392989,0.72428 0.01059,-0.81764 c 0.01776,-1.37049 -1.490691,-4.02689 -2.821064,-4.96794 -1.567124,-1.10851 -2.565918,-1.44628 -4.347808,-1.47033 -1.309724,-0.0177 -1.543599,0.0603 -1.924329,0.64133 -0.484877,0.74001 -1.079181,0.85708 -1.404048,0.27658 -0.128779,-0.23012 -0.351157,-0.30096 -0.55304,-0.17619 -0.269573,0.1666 -0.273714,0.44774 -0.02054,1.39433 0.304078,1.13691 0.272641,1.28281 -0.764821,3.54963 -1.3554,2.96149 -2.032465,5.48113 -1.659919,6.17724 0.396109,0.74014 2.210848,2.10127 3.367047,2.52544 1.517124,0.55657 4.228438,0.49736 5.593548,-0.12215 z m -8.091739,-10.60931 c 0.158647,-0.37872 0.210283,-0.89228 0.114747,-1.14124 -0.603697,-1.57321 -2.86495,3.69247 -2.393064,5.57262 0.136893,0.54542 0.304576,0.30414 1.076016,-1.54834 0.502618,-1.20695 1.043653,-2.50431 1.202301,-2.88304 z m 8.128841,4.40547 c 0.550957,-0.66386 0.223577,-1.33563 -0.650909,-1.33563 -0.546698,0 -0.814438,0.14505 -0.878121,0.47573 -0.10505,0.54549 0.388041,1.24406 0.878121,1.24406 0.182644,0 0.475554,-0.17287 0.650909,-0.38416 z" id="path2040" inkscape:connector-curvature="0"/>
    </g>
</svg>