
<svg id="object" height="512" viewBox="0 0 100 100" width="512" xmlns="http://www.w3.org/2000/svg"><g id="_02"><path d="m59.688 82.449h-52.641c-1.104 0-2-.896-2-2v-14.107c0-9.768 7.947-17.714 17.714-17.714h21.211c9.768 0 17.714 7.947 17.714 17.714v14.107c0 1.104-.896 2-2 2zm-50.64-4h48.64v-12.107c0-7.562-6.152-13.714-13.714-13.714h-21.211c-7.562 0-13.714 6.152-13.714 13.714v12.107z"/><path d="m33.368 46.518c-7.986 0-14.484-6.498-14.484-14.484s6.498-14.483 14.484-14.483 14.483 6.497 14.483 14.483-6.497 14.484-14.483 14.484zm0-24.967c-5.781 0-10.484 4.703-10.484 10.483s4.703 10.484 10.484 10.484 10.483-4.703 10.483-10.484-4.703-10.483-10.483-10.483z"/><path d="m92.953 82.449h-24.196c-1.104 0-2-.896-2-2s.896-2 2-2h24.196c1.104 0 2 .896 2 2s-.896 2-2 2z"/><path d="m92.953 67.225h-24.196c-1.104 0-2-.896-2-2s.896-2 2-2h24.196c1.104 0 2 .896 2 2s-.896 2-2 2z"/><path d="m92.953 52h-24.196c-1.104 0-2-.896-2-2s.896-2 2-2h24.196c1.104 0 2 .896 2 2s-.896 2-2 2z"/><path d="m92.953 36.775h-24.196c-1.104 0-2-.896-2-2s.896-2 2-2h24.196c1.104 0 2 .896 2 2s-.896 2-2 2z"/><path d="m92.953 21.551h-24.196c-1.104 0-2-.896-2-2s.896-2 2-2h24.196c1.104 0 2 .896 2 2s-.896 2-2 2z"/></g></svg>